# xmcd
#
# Track frame offsets: 
#        150
#        12528
#        37405
#        52642
#        66533
#        87980
#        100885
#        129634
#        150425
#        170781
#        186313
#        198707
#
# Disc length: 2867 seconds
#
# Revision: 0
# Processed by: cddbd v1.5.2PL0 Copyright (c) Steve Scherf et al.
# Submitted via: ExactAudioCopy v1.2
#
DISCID=af0b310c
DTITLE=Bill Dicey - A Fool in Love: The Complete Sessions
DYEAR=2019
DGENRE=Blues
TTITLE0=Fool in Love
TTITLE1=Whoopin' and Hollerin'
TTITLE2=Americana
TTITLE3=Sleeping with the Devil
TTITLE4=Too Poor to Die
TTITLE5=Wheeling and Dealing
TTITLE6=Rainin' in My Heart
TTITLE7=Lightnin' Bug
TTITLE8=Sail On
TTITLE9=Lightnin' Bug (Version 2)
TTITLE10=Sleeping with the Devil (Version 2)
TTITLE11=Wheeling and Dealing (Version 2)
EXTD=
EXTT0=
EXTT1=
EXTT2=
EXTT3=
EXTT4=
EXTT5=
EXTT6=
EXTT7=
EXTT8=
EXTT9=
EXTT10=
EXTT11=
PLAYORDER=
